<svg width="124" height="28" viewBox="0 0 124 28" fill="none" xmlns="http://www.w3.org/2000/svg">
<path fill-rule="evenodd" clip-rule="evenodd" d="M9.95232 3.18424C8.08833 5.56332 7.31298 7.86163 7.08585 9.82217C7.05452 10.0645 7.01536 10.1893 7.09368 10.2113C7.172 10.2334 7.24249 10.1306 7.37563 9.93231C8.06484 8.89697 9.11431 8.05989 10.4301 7.60463L14.205 6.31963C17.3378 5.24758 20.7995 6.7602 21.9351 9.69734L23.0159 12.4803C23.0707 12.6051 23.1334 12.774 23.2117 12.9796L23.3135 13.2366C23.3918 13.4275 23.4231 13.6258 23.4701 13.824C23.4858 13.8754 23.4936 13.9195 23.5093 13.9709C23.5485 14.1324 23.5954 14.294 23.6189 14.4628C24.0889 16.7538 24.1593 20.5427 21.3007 24.6106C21.1597 24.8162 21.1362 24.875 21.1989 24.9631C21.3164 25.1099 21.5748 24.9851 21.5748 24.9851L22.6713 24.6106C27.8012 22.863 30.4483 17.5468 28.5765 12.7299L26.3209 6.9144C24.4491 2.10485 18.7788 -0.377026 13.649 1.37791L11.4325 2.13422C11.4325 2.13422 10.7982 2.46465 10.618 2.6115C10.3517 2.82445 10.1481 2.92725 9.95232 3.18424Z" fill="white"/>
<path fill-rule="evenodd" clip-rule="evenodd" d="M19.2252 25.3156C21.0892 22.9365 21.8645 20.6382 22.0916 18.6776C22.123 18.4353 22.1621 18.3105 22.0838 18.2885C22.0055 18.2664 21.935 18.3692 21.8019 18.5675C21.1127 19.6028 20.0632 20.4399 18.7474 20.8952L14.9725 22.1802C11.8397 23.2522 8.37803 21.7396 7.24241 18.8025L6.16162 16.0195C6.10679 15.8947 6.04414 15.7258 5.96582 15.5202L5.864 15.2632C5.78569 15.0723 5.75436 14.8741 5.70737 14.6758C5.6917 14.6244 5.68387 14.5803 5.66821 14.5289C5.62905 14.3674 5.58206 14.2059 5.55856 14.037C5.08865 11.746 5.01816 7.95711 7.8768 3.88918C8.01777 3.68358 8.04126 3.62484 7.97861 3.53672C7.86113 3.38987 7.60268 3.5147 7.60268 3.5147L6.50622 3.88918C1.37634 5.63677 -1.27083 10.953 0.600984 15.7699L2.85656 21.5781C4.72838 26.3876 10.3987 28.8695 15.5285 27.1146L17.745 26.3583C17.745 26.3583 18.3793 26.0278 18.5595 25.881C18.8258 25.6754 19.0216 25.5726 19.2252 25.3156Z" fill="white"/>
<path d="M40.7549 21.1376V5.10083H37.395V23.781H47.8271L47.6548 21.1376H40.7549Z" fill="white"/>
<path d="M61.2822 20.3077V14.5656C61.2822 13.0236 60.9141 11.8267 60.1779 10.9896C59.4417 10.1526 58.0946 9.73401 56.1288 9.73401C55.1263 9.73401 54.1787 9.83681 53.2702 10.0497C52.3695 10.2627 51.4532 10.5637 50.5369 10.9456L51.2104 13.097C52.8551 12.4509 54.3118 12.1278 55.5649 12.1278C56.4891 12.1278 57.147 12.3554 57.5542 12.8033C57.9536 13.2512 58.1573 13.7946 58.1573 14.4187V15.2705C56.5282 15.3806 55.1107 15.5495 53.9046 15.7845C52.6985 16.0121 51.6412 16.4821 50.7248 17.1796C49.8163 17.8772 49.3542 18.8758 49.3542 20.1608C49.3542 21.4311 49.7615 22.4151 50.576 23.1126C51.3905 23.8102 52.5418 24.1627 54.0377 24.1627C55.0167 24.1627 55.8547 24.0011 56.5361 23.678C57.2253 23.355 57.8988 22.907 58.5645 22.3416C58.8621 22.9144 59.3164 23.3329 59.9508 23.5973C60.5773 23.8616 61.2587 23.9938 61.9792 23.9938L62.7468 22.0039C61.7678 21.813 61.2822 21.2476 61.2822 20.3077ZM58.1573 20.528C57.7813 20.9318 57.2958 21.2696 56.6849 21.5339C56.074 21.7983 55.5101 21.9304 54.9775 21.9304C54.2335 21.9304 53.6461 21.7395 53.2154 21.3651C52.7846 20.9906 52.5653 20.4986 52.5653 19.8891C52.5653 18.215 54.4293 17.2971 58.1573 17.1282V20.528Z" fill="white"/>
<path d="M73.1082 9.74146C72.1684 9.74146 71.2677 9.903 70.4141 10.2261C69.5604 10.5492 68.691 10.9824 67.806 11.5331L67.5398 10.1233H65.1824V23.7809H68.3934V13.5157C69.02 13.1118 69.67 12.7814 70.3514 12.5391C71.0249 12.2894 71.6593 12.1646 72.2467 12.1646C72.9124 12.1646 73.4215 12.2821 73.7661 12.5244C74.1107 12.7667 74.33 13.0898 74.4318 13.501C74.5336 13.9122 74.5806 14.4629 74.5806 15.1458V23.7809H77.7917V14.8154C77.7917 13.1045 77.4393 11.8342 76.7501 10.9971C76.0452 10.16 74.8391 9.74146 73.1082 9.74146Z" fill="white"/>
<path d="M84.308 19.9185V4.32971L81.0969 4.85105V20.0801C81.0969 21.4385 81.418 22.4371 82.0524 23.076C82.6868 23.7075 83.6736 24.0305 85.0129 24.0305L85.6316 24.0012L86.3051 22.0113C85.6159 21.9378 85.1147 21.7469 84.7857 21.4312C84.4646 21.1228 84.308 20.6161 84.308 19.9185Z" fill="white"/>
<path d="M87.1431 12.5538H89.6728V23.781H92.8838V10.1233H87.1431V12.5538Z" fill="white"/>
<path d="M92.6958 4.79965C92.312 4.48391 91.7873 4.32971 91.1216 4.32971C90.4716 4.32971 89.9625 4.48391 89.5944 4.79965C89.2185 5.11539 89.0383 5.55596 89.0383 6.12136C89.0383 6.67207 89.2263 7.09796 89.5944 7.40636C89.9703 7.70741 90.4794 7.86161 91.1216 7.86161C91.7873 7.86161 92.312 7.70741 92.6958 7.40636C93.0796 7.1053 93.2675 6.67207 93.2675 6.12136C93.2675 5.55596 93.0796 5.11539 92.6958 4.79965Z" fill="white"/>
<path d="M104.608 9.74146C103.668 9.74146 102.767 9.903 101.914 10.2261C101.06 10.5492 100.191 10.9824 99.3058 11.5331L99.0395 10.1233H96.6821V23.7809H99.8932V13.5157C100.52 13.1118 101.17 12.7814 101.851 12.5391C102.525 12.2894 103.159 12.1646 103.746 12.1646C104.412 12.1646 104.921 12.2821 105.266 12.5244C105.61 12.7667 105.83 13.0898 105.932 13.501C106.033 13.9122 106.08 14.4629 106.08 15.1458V23.7809H109.291V14.8154C109.291 13.1045 108.939 11.8342 108.25 10.9971C107.553 10.16 106.339 9.74146 104.608 9.74146Z" fill="white"/>
<path d="M119.128 17.657L118.009 16.2765L119.128 15.0356L123.53 10.8428V10.1232H120.319L115.307 14.8373V9.30081V4.32971L112.095 4.63077V23.7809H115.307V18.5308V17.7671L115.776 18.2664L120.914 23.7809H124V23.0686L119.128 17.657Z" fill="white"/>
</svg>
